<svg xmlns="http://www.w3.org/2000/svg" viewBox="0 0 24 24" fill="none">
    <path d="M12 3C8.5 3 6 5.5 6 9C6 13.5 12 15 12 18.5C12 20.5 10.5 21 9 21C7 21 6 19.5 6 19.5" stroke="url(#logo-grad-1)" stroke-width="2.5" stroke-linecap="round"/>
    <path d="M12 21C15.5 21 18 18.5 18 15C18 10.5 12 9 12 5.5C12 3.5 13.5 3 15 3C17 3 18 4.5 18 4.5" stroke="url(#logo-grad-2)" stroke-width="2.5" stroke-linecap="round"/>
    <defs>
        <linearGradient id="logo-grad-1" x1="6" y1="3" x2="12" y2="21" gradientUnits="userSpaceOnUse">
            <stop offset="0%" stop-color="#06d6a0" />
            <stop offset="100%" stop-color="#48cae4" />
        </linearGradient>
        <linearGradient id="logo-grad-2" x1="18" y1="21" x2="12" y2="3" gradientUnits="userSpaceOnUse">
            <stop offset="0%" stop-color="#48cae4" />
            <stop offset="100%" stop-color="#ffd166" />
        </linearGradient>
    </defs>
</svg>
